<?xml version="1.0" encoding="UTF-8" standalone="no"?>
<!DOCTYPE svg PUBLIC "-//W3C//DTD SVG 1.1//EN" "http://www.w3.org/Graphics/SVG/1.1/DTD/svg11.dtd">
<svg width="100%" height="100%" viewBox="0 0 2100 480" version="1.1" xmlns="http://www.w3.org/2000/svg" xmlns:xlink="http://www.w3.org/1999/xlink" xml:space="preserve" xmlns:serif="http://www.serif.com/" style="fill-rule:evenodd;clip-rule:evenodd;stroke-linejoin:round;stroke-miterlimit:2;">
    <g transform="matrix(1,0,0,1,0,-1100)">
        <g transform="matrix(1,0,0,0.48,0,581.6)">
            <rect id="Logo.Text" x="0" y="1080" width="2100" height="1000" style="fill:none;"/>
            <g id="Logo.Text1" serif:id="Logo.Text">
                <g transform="matrix(0.333333,0,0,0.694444,73.3333,1232.78)">
                    <g id="Logo">
                        <path d="M140,620L260,500L140,380L260,260L500,500L260,740L140,620ZM860,620L740,500L620,620L500,500L740,260L980,500L860,620ZM380,660L500,780L620,660L720,760L500,980L280,760L380,660ZM620,340L500,220L380,340L280,240L500,20L720,240L620,340ZM120,400L220,500L120,600L20,500L120,400ZM740,740L640,640L740,540L840,640L740,740Z"/>
                    </g>
                </g>
                <g transform="matrix(11.0554,0,0,23.0322,-5655.08,-34681.5)">
                    <g transform="matrix(24,0,0,24,553.766,1582.8)">
                        <path d="M0.049,-0L0.049,-0.701L0.479,-0.701L0.53,-0.64L0.53,-0.062L0.48,-0L0.049,-0ZM0.404,-0.581L0.184,-0.581L0.184,-0.12L0.404,-0.12L0.404,-0.581Z" style="fill-rule:nonzero;"/>
                    </g>
                    <g transform="matrix(24,0,0,24,567.664,1582.8)">
                        <path d="M0.53,-0.701L0.53,-0L0.049,-0L0.049,-0.701L0.53,-0.701ZM0.404,-0.581L0.184,-0.581L0.184,-0.12L0.404,-0.12L0.404,-0.581Z" style="fill-rule:nonzero;"/>
                    </g>
                    <g transform="matrix(24,0,0,24,581.563,1582.8)">
                        <path d="M0.404,-0.701L0.53,-0.701L0.53,-0L0.049,-0L0.049,-0.701L0.184,-0.701L0.184,-0.12L0.404,-0.12L0.404,-0.701Z" style="fill-rule:nonzero;"/>
                    </g>
                    <g transform="matrix(24,0,0,24,595.461,1582.8)">
                        <path d="M0.184,-0.302L0.184,-0.12L0.404,-0.12L0.404,-0.701L0.53,-0.701L0.53,-0L0.049,-0L0.049,-0.302L0.184,-0.302Z" style="fill-rule:nonzero;"/>
                    </g>
                    <g transform="matrix(24,0,0,24,609.359,1582.8)">
                        <rect x="0.049" y="-0.701" width="0.135" height="0.701" style="fill-rule:nonzero;"/>
                    </g>
                    <g transform="matrix(24,0,0,24,614.938,1582.8)">
                        <path d="M0.184,-0L0.049,-0L0.049,-0.701L0.184,-0.701L0.404,-0.308L0.404,-0.701L0.53,-0.701L0.53,-0L0.404,-0L0.184,-0.405L0.184,-0Z" style="fill-rule:nonzero;"/>
                    </g>
                    <g transform="matrix(24,0,0,24,634.789,1582.8)">
                        <path d="M0.184,-0L0.049,-0L0.049,-0.701L0.184,-0.701L0.32,-0.317L0.462,-0.701L0.589,-0.701L0.589,-0L0.462,-0L0.462,-0.293L0.364,-0L0.285,-0L0.184,-0.293L0.184,-0Z" style="fill-rule:nonzero;"/>
                    </g>
                    <g transform="matrix(24,0,0,24,650.094,1582.8)">
                        <path d="M0.184,-0.581L0.184,-0.408L0.53,-0.408L0.53,-0.293L0.184,-0.293L0.184,-0.12L0.53,-0.12L0.53,-0L0.049,-0L0.049,-0.701L0.53,-0.701L0.53,-0.581L0.184,-0.581Z" style="fill-rule:nonzero;"/>
                    </g>
                    <g transform="matrix(24,0,0,24,663.992,1582.8)">
                        <path d="M0.231,-0.581L0.049,-0.581L0.049,-0.701L0.53,-0.701L0.53,-0.581L0.366,-0.581L0.366,-0L0.231,-0L0.231,-0.581Z" style="fill-rule:nonzero;"/>
                    </g>
                    <g transform="matrix(24,0,0,24,677.891,1582.8)">
                        <path d="M0.404,-0.293L0.184,-0.293L0.184,-0L0.049,-0L0.049,-0.701L0.53,-0.701L0.53,-0L0.404,-0L0.404,-0.293ZM0.184,-0.581L0.184,-0.408L0.404,-0.408L0.404,-0.581L0.184,-0.581Z" style="fill-rule:nonzero;"/>
                    </g>
                </g>
            </g>
        </g>
    </g>
</svg>
