<?xml version="1.0" encoding="UTF-8" standalone="no"?>
<!DOCTYPE svg PUBLIC "-//W3C//DTD SVG 1.1//EN" "http://www.w3.org/Graphics/SVG/1.1/DTD/svg11.dtd">
<svg width="100%" height="100%" viewBox="0 0 1000 1000" version="1.1" xmlns="http://www.w3.org/2000/svg" xmlns:xlink="http://www.w3.org/1999/xlink" xml:space="preserve" xmlns:serif="http://www.serif.com/" style="fill-rule:evenodd;clip-rule:evenodd;stroke-linejoin:round;stroke-miterlimit:2;">
    <g transform="matrix(1,0,0,1,-2200,0)">
        <g transform="matrix(1,0,0,1,1090,0)">
            <rect id="Logo.White" x="1110" y="0" width="1000" height="1000" style="fill:none;"/>
            <g id="Logo.White1" serif:id="Logo.White">
                <g transform="matrix(1,0,0,1,1110,8.52651e-14)">
                    <path d="M140,620L260,500L140,380L260,260L500,500L260,740L140,620ZM860,620L740,500L620,620L500,500L740,260L980,500L860,620ZM380,660L500,780L620,660L720,760L500,980L280,760L380,660ZM620,340L500,220L380,340L280,240L500,20L720,240L620,340ZM120,400L220,500L120,600L20,500L120,400ZM740,740L640,640L740,540L840,640L740,740Z" style="fill:white;"/>
                </g>
            </g>
        </g>
    </g>
</svg>
