<?xml version="1.0" encoding="UTF-8" standalone="no"?>
<!DOCTYPE svg PUBLIC "-//W3C//DTD SVG 1.1//EN" "http://www.w3.org/Graphics/SVG/1.1/DTD/svg11.dtd">
<svg width="100%" height="100%" viewBox="0 0 1819 480" version="1.1" xmlns="http://www.w3.org/2000/svg" xmlns:xlink="http://www.w3.org/1999/xlink" xml:space="preserve" xmlns:serif="http://www.serif.com/" style="fill-rule:evenodd;clip-rule:evenodd;stroke-linejoin:round;stroke-miterlimit:2;">
    <g transform="matrix(1,0,0,1,0,-1100)">
        <g transform="matrix(0.86619,0,0,0.48,0,581.6)">
            <rect id="Logo.Text" x="0" y="1080" width="2100" height="1000" style="fill:none;"/>
            <g id="Logo.Text1" serif:id="Logo.Text">
                <g transform="matrix(12.7633,0,0,23.0322,-6480,-34686.6)">
                    <path d="M557.387,1564.91L558.711,1564.91C560.336,1564.91 561.727,1565.58 562.883,1566.92C563.414,1567.54 563.848,1568.35 564.184,1569.34C564.613,1570.62 564.828,1572.02 564.828,1573.56C564.828,1576.75 564.117,1579.15 562.695,1580.76C561.703,1581.87 560.453,1582.43 558.945,1582.43L557.293,1582.43C555.84,1582.43 555.113,1581.72 555.113,1580.3L555.113,1567.06C555.113,1565.63 555.871,1564.91 557.387,1564.91ZM557.82,1568.07L557.82,1579.25C557.82,1579.57 557.988,1579.73 558.324,1579.73L558.898,1579.73C559.766,1579.73 560.449,1579.34 560.949,1578.57C561.645,1577.5 561.992,1575.84 561.992,1573.59C561.992,1571.64 561.691,1570.13 561.09,1569.05C560.566,1568.09 559.836,1567.61 558.898,1567.61L558.324,1567.61C557.988,1567.61 557.82,1567.76 557.82,1568.07Z" style="fill-rule:nonzero;"/>
                </g>
                <g transform="matrix(12.7633,0,0,23.0322,-6474.23,-34686.6)">
                    <path d="M570.949,1569.6C572.473,1569.6 573.68,1570.23 574.57,1571.48C575.406,1572.66 575.824,1574.23 575.824,1576.2C575.824,1577.78 575.57,1579.11 575.062,1580.18C574.219,1581.97 572.84,1582.87 570.926,1582.87C569.262,1582.87 567.992,1582.17 567.117,1580.77C566.391,1579.61 566.027,1578.1 566.027,1576.22C566.027,1574.12 566.492,1572.48 567.422,1571.3C568.312,1570.17 569.488,1569.6 570.949,1569.6ZM570.914,1572.03C570.281,1572.03 569.769,1572.36 569.379,1573.03C568.949,1573.78 568.734,1574.82 568.734,1576.17C568.734,1577.41 568.902,1578.39 569.238,1579.13C569.621,1579.96 570.187,1580.37 570.937,1580.37C571.625,1580.37 572.16,1580.01 572.543,1579.29C572.941,1578.56 573.141,1577.52 573.141,1576.16C573.141,1574.76 572.906,1573.69 572.437,1572.95C572.039,1572.34 571.531,1572.03 570.914,1572.03Z" style="fill-rule:nonzero;"/>
                </g>
                <g transform="matrix(12.7633,0,0,23.0322,-6474.23,-34686.6)">
                    <path d="M584.371,1581.04C583.629,1582.21 582.543,1582.8 581.113,1582.8C579.949,1582.8 579.047,1582.33 578.406,1581.4C577.836,1580.57 577.551,1579.49 577.551,1578.17L577.551,1570.91C577.551,1570.66 577.621,1570.45 577.761,1570.27C578.011,1569.93 578.386,1569.77 578.886,1569.77C579.426,1569.77 579.816,1569.95 580.058,1570.32C580.176,1570.5 580.234,1570.69 580.234,1570.91L580.234,1578.02C580.234,1578.54 580.308,1578.98 580.457,1579.35C580.722,1579.98 581.14,1580.3 581.711,1580.3C582.273,1580.3 582.804,1579.97 583.304,1579.3C583.726,1578.74 583.937,1578.18 583.937,1577.62L583.937,1570.91C583.937,1570.64 584.027,1570.4 584.207,1570.2C584.472,1569.91 584.84,1569.77 585.308,1569.77C585.863,1569.77 586.258,1569.96 586.492,1570.36C586.593,1570.53 586.644,1570.71 586.644,1570.91L586.644,1581.62C586.644,1582.34 586.308,1582.7 585.636,1582.7C585.074,1582.7 584.707,1582.37 584.535,1581.69L584.371,1581.04Z" style="fill-rule:nonzero;"/>
                </g>
                <g transform="matrix(12.7633,0,0,23.0322,-6513.79,-34686.6)">
                    <path d="M595.461,1570.96L595.461,1584.33C595.461,1585.34 595.222,1586.19 594.746,1586.88C594.089,1587.82 593.105,1588.29 591.793,1588.29C590.558,1588.29 589.578,1587.87 588.851,1587.02C588.5,1586.59 588.324,1586.19 588.324,1585.81C588.324,1585.39 588.496,1585.05 588.839,1584.78C589.066,1584.59 589.316,1584.5 589.589,1584.5C589.988,1584.5 590.328,1584.68 590.609,1585.05C590.882,1585.4 591.226,1585.57 591.64,1585.57C592.265,1585.57 592.578,1585.16 592.578,1584.33L592.578,1570.96C592.578,1570.53 592.769,1570.21 593.152,1569.99C593.41,1569.84 593.699,1569.77 594.019,1569.77C594.472,1569.77 594.843,1569.9 595.132,1570.17C595.351,1570.38 595.461,1570.64 595.461,1570.96ZM594.019,1564.53C594.363,1564.53 594.691,1564.62 595.003,1564.82C595.582,1565.19 595.871,1565.71 595.871,1566.38C595.871,1566.88 595.695,1567.31 595.343,1567.68C594.976,1568.06 594.527,1568.25 593.996,1568.25C593.683,1568.25 593.386,1568.17 593.105,1568.01C592.464,1567.64 592.144,1567.09 592.144,1566.37C592.144,1565.75 592.406,1565.25 592.929,1564.88C593.25,1564.64 593.613,1564.53 594.019,1564.53Z" style="fill-rule:nonzero;"/>
                </g>
                <g transform="matrix(12.7633,0,0,23.0322,-6573.12,-34686.6)">
                    <path d="M605.847,1570.96L605.847,1581.52C605.847,1581.82 605.749,1582.08 605.554,1582.28C605.281,1582.56 604.898,1582.7 604.406,1582.7C603.788,1582.7 603.363,1582.5 603.128,1582.08C603.035,1581.92 602.988,1581.73 602.988,1581.52L602.988,1570.96C602.988,1570.53 603.171,1570.21 603.538,1569.99C603.796,1569.84 604.085,1569.77 604.406,1569.77C604.859,1569.77 605.23,1569.9 605.519,1570.17C605.738,1570.38 605.847,1570.64 605.847,1570.96ZM604.406,1564.54C604.718,1564.54 605.019,1564.62 605.308,1564.77C605.949,1565.13 606.269,1565.67 606.269,1566.38C606.269,1566.68 606.199,1566.97 606.058,1567.23C605.714,1567.91 605.16,1568.25 604.394,1568.25C604.081,1568.25 603.785,1568.17 603.503,1568.02C602.871,1567.66 602.554,1567.11 602.554,1566.38C602.554,1565.79 602.788,1565.31 603.257,1564.94C603.593,1564.67 603.976,1564.54 604.406,1564.54Z" style="fill-rule:nonzero;"/>
                </g>
                <g transform="matrix(12.7633,0,0,23.0322,-6602.83,-34686.6)">
                    <path d="M613.304,1571.69C614.14,1570.36 615.245,1569.69 616.62,1569.69C617.738,1569.69 618.62,1570.17 619.269,1571.11C619.839,1571.94 620.124,1573 620.124,1574.3L620.124,1581.58C620.124,1581.86 620.027,1582.11 619.831,1582.32C619.573,1582.59 619.218,1582.73 618.765,1582.73C618.218,1582.73 617.82,1582.53 617.57,1582.14C617.468,1581.98 617.417,1581.8 617.417,1581.58L617.417,1574.46C617.417,1573.96 617.343,1573.52 617.195,1573.15C616.937,1572.51 616.531,1572.19 615.976,1572.19C615.413,1572.19 614.878,1572.52 614.37,1573.19C613.933,1573.77 613.714,1574.32 613.714,1574.85L613.714,1581.58C613.714,1581.83 613.644,1582.04 613.503,1582.22C613.253,1582.56 612.878,1582.73 612.378,1582.73C611.839,1582.73 611.448,1582.54 611.206,1582.17C611.089,1582 611.031,1581.8 611.031,1581.58L611.031,1570.87C611.031,1570.61 611.093,1570.39 611.218,1570.2C611.398,1569.92 611.675,1569.79 612.05,1569.79C612.652,1569.79 613.015,1570.12 613.14,1570.8L613.304,1571.69Z" style="fill-rule:nonzero;"/>
                </g>
                <g transform="matrix(12.7633,0,0,23.0322,-6660.18,-34686.6)">
                    <path d="M635.819,1570.41L636.089,1581.69C636.081,1581.95 635.999,1582.16 635.843,1582.32C635.585,1582.57 635.253,1582.7 634.847,1582.7C634.355,1582.7 633.999,1582.52 633.78,1582.15C633.702,1582.02 633.663,1581.87 633.663,1581.69L633.663,1566.33C633.663,1565.86 633.804,1565.47 634.085,1565.17C634.405,1564.83 634.823,1564.66 635.339,1564.66C636.417,1564.66 637.026,1565.16 637.167,1566.17L638.726,1577.14L640.308,1566.17C640.378,1565.71 640.562,1565.35 640.858,1565.09C641.187,1564.8 641.601,1564.66 642.101,1564.66C642.702,1564.66 643.159,1564.86 643.472,1565.28C643.683,1565.57 643.788,1565.92 643.788,1566.33L643.788,1581.69C643.788,1581.94 643.702,1582.16 643.53,1582.34C643.304,1582.58 642.991,1582.7 642.593,1582.7C642.163,1582.7 641.831,1582.57 641.597,1582.29C641.456,1582.13 641.386,1581.93 641.386,1581.69L641.655,1570.41L640.003,1581.07C639.964,1581.29 639.878,1581.49 639.745,1581.67C639.487,1582.01 639.148,1582.17 638.726,1582.17C638.226,1582.17 637.858,1581.95 637.624,1581.51C637.554,1581.38 637.503,1581.24 637.472,1581.07L635.819,1570.41Z" style="fill-rule:nonzero;"/>
                </g>
                <g transform="matrix(12.7633,0,0,23.0322,-6652.1,-34686.6)">
                    <path d="M647.8,1576.89C647.815,1577.81 647.976,1578.55 648.28,1579.11C648.718,1579.92 649.37,1580.32 650.237,1580.32C650.964,1580.32 651.624,1579.98 652.218,1579.29C652.483,1578.97 652.808,1578.81 653.19,1578.81C653.534,1578.81 653.823,1578.94 654.058,1579.19C654.284,1579.43 654.397,1579.71 654.397,1580.03C654.397,1580.45 654.218,1580.89 653.858,1581.33C653.03,1582.34 651.831,1582.84 650.261,1582.84C648.69,1582.84 647.429,1582.26 646.476,1581.1C645.499,1579.89 645.011,1578.28 645.011,1576.25C645.011,1574.36 645.429,1572.82 646.265,1571.62C647.194,1570.29 648.421,1569.62 649.944,1569.62C651.218,1569.62 652.28,1570.12 653.132,1571.12C653.601,1571.67 653.964,1572.33 654.222,1573.11C654.479,1573.87 654.608,1574.62 654.608,1575.34C654.608,1575.93 654.487,1576.34 654.245,1576.56C654.003,1576.78 653.62,1576.89 653.097,1576.89L647.8,1576.89ZM647.823,1574.69L651.515,1574.69C651.757,1574.69 651.878,1574.57 651.878,1574.35C651.878,1573.82 651.745,1573.34 651.479,1572.89C651.112,1572.27 650.593,1571.96 649.921,1571.96C649.186,1571.96 648.62,1572.34 648.222,1573.09C647.995,1573.51 647.862,1574.04 647.823,1574.69Z" style="fill-rule:nonzero;"/>
                </g>
                <g transform="matrix(12.7633,0,0,23.0322,-6671.11,-34686.6)">
                    <path d="M659.651,1570.06L659.651,1567.36C659.651,1567.08 659.733,1566.84 659.897,1566.64C660.163,1566.32 660.546,1566.17 661.046,1566.17C661.639,1566.17 662.057,1566.38 662.3,1566.8C662.393,1566.96 662.44,1567.15 662.44,1567.36L662.44,1570.06L664.339,1570.06C664.604,1570.06 664.835,1570.14 665.03,1570.3C665.303,1570.55 665.44,1570.89 665.44,1571.34C665.44,1571.85 665.257,1572.22 664.889,1572.45C664.733,1572.55 664.55,1572.6 664.339,1572.6L662.44,1572.6L662.44,1581.52C662.44,1581.8 662.358,1582.04 662.194,1582.23C661.928,1582.55 661.546,1582.7 661.046,1582.7C660.452,1582.7 660.034,1582.5 659.792,1582.08C659.698,1581.92 659.651,1581.73 659.651,1581.52L659.651,1572.6L657.776,1572.6C657.511,1572.6 657.28,1572.52 657.085,1572.34C656.811,1572.1 656.675,1571.76 656.675,1571.32C656.675,1570.8 656.858,1570.42 657.225,1570.2C657.389,1570.11 657.573,1570.06 657.776,1570.06L659.651,1570.06Z" style="fill-rule:nonzero;"/>
                </g>
                <g transform="matrix(12.7633,0,0,23.0322,-6687.13,-34686.6)">
                    <path d="M674.315,1571.14L674.409,1570.66C674.534,1570.03 674.94,1569.72 675.628,1569.72C676.151,1569.72 676.514,1569.92 676.717,1570.32C676.796,1570.47 676.835,1570.65 676.835,1570.84L676.835,1581.58C676.835,1581.93 676.729,1582.21 676.518,1582.41C676.307,1582.61 676.042,1582.7 675.721,1582.7C675.104,1582.7 674.749,1582.4 674.655,1581.79L674.526,1581.04C673.948,1582.19 672.932,1582.77 671.479,1582.77C670.292,1582.77 669.307,1582.21 668.526,1581.07C667.682,1579.85 667.26,1578.24 667.26,1576.25C667.26,1574.4 667.667,1572.87 668.479,1571.64C669.338,1570.34 670.397,1569.69 671.655,1569.69C672.897,1569.69 673.784,1570.17 674.315,1571.14ZM674.245,1576.61L674.245,1575.58C674.245,1574.43 673.987,1573.53 673.471,1572.87C673.088,1572.39 672.643,1572.14 672.135,1572.14C671.635,1572.14 671.202,1572.41 670.835,1572.95C670.296,1573.73 670.026,1574.83 670.026,1576.27C670.026,1577.5 670.21,1578.49 670.577,1579.23C670.944,1579.98 671.452,1580.35 672.1,1580.35C672.842,1580.35 673.413,1579.91 673.811,1579.03C674.1,1578.39 674.245,1577.58 674.245,1576.61Z" style="fill-rule:nonzero;"/>
                </g>
                <g transform="matrix(0.190699,0.344128,-0.190699,0.344128,299.268,2016.76)">
                    <g id="Logo">
                        <path d="M-686.66,-1120C-668.981,-1120 -652.025,-1112.98 -639.524,-1100.48C-627.023,-1087.97 -620,-1071.02 -620,-1053.34C-620,-1031.88 -620,-1008.12 -620,-986.66C-620,-968.981 -627.023,-952.025 -639.524,-939.524C-652.025,-927.023 -668.981,-920 -686.66,-920C-711.592,-920 -740.381,-920 -767.246,-920C-791.846,-920 -815.438,-910.228 -832.833,-892.833C-850.228,-875.438 -860,-851.846 -860,-827.246C-860,-800.381 -860,-771.592 -860,-746.66C-860,-728.981 -867.023,-712.025 -879.524,-699.524C-892.025,-687.023 -908.981,-680 -926.66,-680L-993.34,-680C-1011.02,-680 -1027.97,-687.023 -1040.48,-699.524C-1052.98,-712.025 -1060,-728.981 -1060,-746.66C-1060,-829.603 -1060,-970.397 -1060,-1053.34C-1060,-1090.15 -1030.15,-1120 -993.34,-1120L-686.66,-1120ZM-140,-986.66C-140,-968.981 -147.023,-952.025 -159.524,-939.524C-172.025,-927.023 -188.981,-920 -206.66,-920C-231.592,-920 -260.381,-920 -287.246,-920C-311.846,-920 -335.438,-910.228 -352.833,-892.833C-370.228,-875.438 -380,-851.846 -380,-827.246C-380,-800.381 -380,-771.592 -380,-746.66C-380,-728.981 -387.023,-712.025 -399.524,-699.524C-412.025,-687.023 -428.981,-680 -446.66,-680C-468.116,-680 -491.884,-680 -513.34,-680C-531.019,-680 -547.975,-687.023 -560.476,-699.524C-572.977,-712.025 -580,-728.981 -580,-746.66C-580,-829.603 -580,-970.397 -580,-1053.34C-580,-1090.15 -550.155,-1120 -513.34,-1120L-206.66,-1120C-188.981,-1120 -172.025,-1112.98 -159.524,-1100.48C-147.023,-1087.97 -140,-1071.02 -140,-1053.34C-140,-1031.88 -140,-1008.12 -140,-986.66ZM-513.34,-200C-531.019,-200 -547.975,-207.023 -560.476,-219.524C-572.977,-232.025 -580,-248.981 -580,-266.66C-580,-288.116 -580,-311.884 -580,-333.34C-580,-351.019 -572.977,-367.975 -560.476,-380.476C-547.975,-392.977 -531.019,-400 -513.34,-400C-488.408,-400 -459.619,-400 -432.754,-400C-408.154,-400 -384.562,-409.772 -367.167,-427.167C-349.772,-444.562 -340,-468.154 -340,-492.754C-340,-519.619 -340,-548.408 -340,-573.34C-340,-591.019 -332.977,-607.975 -320.476,-620.476C-307.975,-632.977 -291.019,-640 -273.34,-640C-251.884,-640 -228.116,-640 -206.66,-640C-188.981,-640 -172.025,-632.977 -159.524,-620.476C-147.023,-607.975 -140,-591.019 -140,-573.34C-140,-490.397 -140,-349.603 -140,-266.66C-140,-229.845 -169.845,-200 -206.66,-200C-289.603,-200 -430.397,-200 -513.34,-200ZM-753.34,-200C-771.019,-200 -787.975,-207.023 -800.476,-219.524C-812.977,-232.025 -820,-248.981 -820,-266.66C-820,-291.592 -820,-320.381 -820,-347.246C-820,-371.846 -829.772,-395.438 -847.167,-412.833C-864.562,-430.228 -888.154,-440 -912.754,-440C-939.619,-440 -968.408,-440 -993.34,-440C-1011.02,-440 -1027.97,-447.023 -1040.48,-459.524C-1052.98,-472.025 -1060,-488.981 -1060,-506.66L-1060,-573.34C-1060,-591.019 -1052.98,-607.975 -1040.48,-620.476C-1027.97,-632.977 -1011.02,-640 -993.34,-640C-910.397,-640 -769.603,-640 -686.66,-640C-649.845,-640 -620,-610.155 -620,-573.34C-620,-490.397 -620,-349.603 -620,-266.66C-620,-248.981 -627.023,-232.025 -639.524,-219.524C-652.025,-207.023 -668.981,-200 -686.66,-200C-708.116,-200 -731.884,-200 -753.34,-200ZM-140,-746.66C-140,-728.981 -147.023,-712.025 -159.524,-699.524C-172.025,-687.023 -188.981,-680 -206.66,-680C-228.116,-680 -251.884,-680 -273.34,-680C-291.019,-680 -307.975,-687.023 -320.476,-699.524C-332.977,-712.025 -340,-728.981 -340,-746.66C-340,-768.116 -340,-791.884 -340,-813.34C-340,-831.019 -332.977,-847.975 -320.476,-860.476C-307.975,-872.977 -291.019,-880 -273.34,-880C-251.884,-880 -228.116,-880 -206.66,-880C-188.981,-880 -172.025,-872.977 -159.524,-860.476C-147.023,-847.975 -140,-831.019 -140,-813.34C-140,-791.884 -140,-768.116 -140,-746.66ZM-1060,-333.34C-1060,-351.019 -1052.98,-367.975 -1040.48,-380.476C-1027.97,-392.977 -1011.02,-400 -993.34,-400C-971.884,-400 -948.116,-400 -926.66,-400C-908.981,-400 -892.025,-392.977 -879.524,-380.476C-867.023,-367.975 -860,-351.019 -860,-333.34C-860,-311.884 -860,-288.116 -860,-266.66C-860,-248.981 -867.023,-232.025 -879.524,-219.524C-892.025,-207.023 -908.981,-200 -926.66,-200C-948.116,-200 -971.884,-200 -993.34,-200C-1011.02,-200 -1027.97,-207.023 -1040.48,-219.524C-1052.98,-232.025 -1060,-248.981 -1060,-266.66C-1060,-288.116 -1060,-311.884 -1060,-333.34Z"/>
                    </g>
                </g>
            </g>
        </g>
    </g>
</svg>
