<?xml version="1.0" encoding="UTF-8" standalone="no"?>
<!DOCTYPE svg PUBLIC "-//W3C//DTD SVG 1.1//EN" "http://www.w3.org/Graphics/SVG/1.1/DTD/svg11.dtd">
<svg width="100%" height="100%" viewBox="0 0 1820 480" version="1.1" xmlns="http://www.w3.org/2000/svg" xmlns:xlink="http://www.w3.org/1999/xlink" xml:space="preserve" xmlns:serif="http://www.serif.com/" style="fill-rule:evenodd;clip-rule:evenodd;stroke-linecap:round;stroke-linejoin:round;stroke-miterlimit:2;">
    <g transform="matrix(1,0,0,1,0,-1100)">
        <g transform="matrix(0.866667,0,0,0.48,0,581.6)">
            <rect id="Logo.Text" x="0" y="1080" width="2100" height="1000" style="fill:none;"/>
            <g id="Logo.Text1" serif:id="Logo.Text">
                <g transform="matrix(9.40457,0,0,16.9805,-4328.49,-20795.7)">
                    <path d="M531.062,1326.05L527.247,1326.05C526.823,1326.05 526.493,1325.72 526.493,1325.3L526.493,1310.18C526.493,1309.76 526.823,1309.43 527.247,1309.43L531.062,1309.43C535.655,1309.43 539.376,1313.15 539.376,1317.74C539.376,1322.33 535.655,1326.05 531.062,1326.05ZM528,1324.55L531.062,1324.55C534.83,1324.55 537.892,1321.49 537.892,1317.74C537.892,1313.97 534.83,1310.91 531.062,1310.91L528,1310.91L528,1324.55Z" style="fill:rgb(17,0,81);fill-rule:nonzero;"/>
                    <path d="M549.106,1326.05C544.513,1326.05 540.792,1322.33 540.792,1317.74C540.792,1313.15 544.513,1309.43 549.106,1309.43C553.699,1309.43 557.42,1313.15 557.42,1317.74C557.42,1322.33 553.699,1326.05 549.106,1326.05ZM549.106,1310.91C545.338,1310.91 542.299,1313.97 542.299,1317.74C542.299,1321.49 545.338,1324.55 549.106,1324.55C552.874,1324.55 555.912,1321.49 555.912,1317.74C555.912,1313.97 552.874,1310.91 549.106,1310.91Z" style="fill:rgb(17,0,81);fill-rule:nonzero;"/>
                    <path d="M565.501,1326.05C561.827,1326.05 558.836,1323.06 558.836,1319.37L558.836,1310.18C558.836,1309.76 559.166,1309.43 559.566,1309.43C559.99,1309.43 560.32,1309.76 560.32,1310.18L560.32,1319.37C560.32,1322.24 562.652,1324.55 565.501,1324.55C568.375,1324.55 570.683,1322.24 570.683,1319.37L570.683,1310.18C570.683,1309.76 571.012,1309.43 571.436,1309.43C571.86,1309.43 572.19,1309.76 572.19,1310.18L572.19,1319.37C572.19,1323.06 569.199,1326.05 565.501,1326.05Z" style="fill:rgb(17,0,81);fill-rule:nonzero;"/>
                    <path d="M577.657,1326.05C576.009,1326.05 574.502,1325.16 573.701,1323.72C573.489,1323.35 573.631,1322.9 573.984,1322.69C574.337,1322.5 574.808,1322.62 574.996,1322.99C575.538,1323.96 576.55,1324.55 577.657,1324.55C579.329,1324.55 580.694,1323.18 580.694,1321.51L580.694,1310.18C580.694,1309.76 581.024,1309.43 581.448,1309.43C581.848,1309.43 582.201,1309.76 582.201,1310.18L582.201,1321.51C582.201,1324.03 580.153,1326.05 577.657,1326.05Z" style="fill:rgb(17,0,81);fill-rule:nonzero;"/>
                    <path d="M584.488,1326.05C584.065,1326.05 583.735,1325.72 583.735,1325.3L583.735,1310.18C583.735,1309.76 584.065,1309.43 584.488,1309.43C584.911,1309.43 585.24,1309.76 585.24,1310.18L585.24,1325.3C585.24,1325.72 584.911,1326.05 584.488,1326.05Z" style="fill:rgb(17,0,81);fill-rule:nonzero;"/>
                    <path d="M599.68,1326.05C599.468,1326.05 599.233,1325.96 599.092,1325.77L588.517,1312.34L588.517,1325.3C588.517,1325.72 588.187,1326.05 587.763,1326.05C587.339,1326.05 587.01,1325.72 587.01,1325.3L587.01,1310.17C587.01,1309.84 587.222,1309.56 587.528,1309.44C587.811,1309.35 588.164,1309.44 588.352,1309.7L598.927,1323.13L598.927,1310.17C598.927,1309.75 599.28,1309.42 599.68,1309.42C600.104,1309.42 600.434,1309.75 600.434,1310.17L600.434,1325.3C600.434,1325.63 600.246,1325.91 599.939,1326.01C599.845,1326.03 599.775,1326.05 599.68,1326.05Z" style="fill:rgb(17,0,81);fill-rule:nonzero;"/>
                    <g transform="matrix(1,0,0,1,-3.03457,0)">
                        <path d="M630.351,1326.05C629.927,1326.05 629.597,1325.73 629.597,1325.3L629.597,1312.64L624.157,1320.71C624.015,1320.92 623.78,1321.04 623.544,1321.04C623.285,1321.04 623.05,1320.92 622.908,1320.71L617.492,1312.64L617.492,1325.3C617.492,1325.73 617.162,1326.05 616.738,1326.05C616.314,1326.05 615.984,1325.73 615.984,1325.3L615.984,1310.19C615.984,1309.86 616.196,1309.55 616.526,1309.46C616.832,1309.36 617.185,1309.48 617.35,1309.76L623.544,1318.94L629.715,1309.76C629.903,1309.48 630.257,1309.36 630.563,1309.46C630.869,1309.55 631.105,1309.86 631.105,1310.19L631.105,1325.3C631.105,1325.73 630.751,1326.05 630.351,1326.05Z" style="fill:rgb(17,0,81);fill-rule:nonzero;"/>
                    </g>
                    <g transform="matrix(1,0,0,1,-3.03457,0)">
                        <path d="M643.377,1324.55L634.261,1324.55L634.261,1318.12L640.833,1318.12C641.234,1318.12 641.587,1317.79 641.587,1317.36C641.587,1316.96 641.234,1316.63 640.833,1316.63L634.261,1316.63L634.261,1310.91L643.377,1310.91C643.778,1310.91 644.131,1310.58 644.131,1310.18C644.131,1309.76 643.778,1309.43 643.377,1309.43L633.509,1309.43C633.086,1309.43 632.756,1309.76 632.756,1310.18L632.756,1325.3C632.756,1325.73 633.086,1326.05 633.509,1326.05L643.377,1326.05C643.778,1326.05 644.131,1325.73 644.131,1325.3C644.131,1324.9 643.778,1324.55 643.377,1324.55Z" style="fill:rgb(17,0,81);fill-rule:nonzero;"/>
                    </g>
                    <g transform="matrix(1,0,0,1,-3.03457,0)">
                        <path d="M657.535,1309.43L646.301,1309.43C645.877,1309.43 645.548,1309.76 645.548,1310.18C645.548,1310.58 645.877,1310.91 646.301,1310.91L651.178,1310.91L651.178,1325.3C651.178,1325.72 651.507,1326.05 651.93,1326.05C652.33,1326.05 652.659,1325.72 652.659,1325.3L652.659,1310.91L657.535,1310.91C657.959,1310.91 658.289,1310.58 658.289,1310.18C658.289,1309.76 657.959,1309.43 657.535,1309.43Z" style="fill:rgb(17,0,81);fill-rule:nonzero;"/>
                    </g>
                    <g transform="matrix(1,0,0,1,-6.20556,0)">
                        <path d="M674.408,1324.99L667.793,1309.87C667.675,1309.59 667.393,1309.42 667.11,1309.42C666.804,1309.42 666.545,1309.59 666.404,1309.87L659.789,1324.99C659.624,1325.37 659.812,1325.82 660.189,1325.98C660.566,1326.15 661.013,1325.98 661.178,1325.61L662.92,1321.6L671.277,1321.6L673.043,1325.61C673.161,1325.89 673.42,1326.05 673.726,1326.05C673.82,1326.05 673.914,1326.03 674.032,1325.98C674.408,1325.82 674.573,1325.37 674.408,1324.99ZM663.579,1320.1L667.11,1312.04L670.618,1320.1L663.579,1320.1Z" style="fill:rgb(17,0,81);fill-rule:nonzero;"/>
                    </g>
                </g>
                <g transform="matrix(0.411956,0,0,0.743809,-306.551,1208.1)">
                    <g transform="matrix(1,0,0,1,1110,3.41061e-13)">
                        <path d="M820,234.752L889.711,275L889.711,725L820,764.825" style="fill:none;stroke:rgb(17,0,81);stroke-width:24px;"/>
                    </g>
                    <g transform="matrix(-1,0,0,-1,2110,999.788)">
                        <path d="M820,234.752L889.711,275L889.711,725L820,764.825" style="fill:none;stroke:rgb(17,0,81);stroke-width:24px;"/>
                    </g>
                    <g transform="matrix(1,0,0,1,1110,-1.7053e-13)">
                        <path d="M245.202,217.892C241.489,215.749 239.202,211.787 239.202,207.5C239.202,203.213 241.489,199.251 245.202,197.108C299.642,165.677 460.851,72.602 494,53.464C497.713,51.321 502.287,51.321 506,53.464C542.154,74.338 730.644,183.162 766.798,204.036C770.511,206.179 772.798,210.141 772.798,214.428L772.798,515.572C772.798,519.859 770.511,523.821 766.798,525.964C730.645,546.837 542.165,655.656 506.012,676.529C502.299,678.673 497.725,678.673 494.012,676.529C460.863,657.391 299.654,564.317 245.214,532.885C241.501,530.742 239.214,526.78 239.214,522.493C239.214,518.206 241.501,514.244 245.214,512.101C265.917,500.148 298.774,481.178 312.187,473.434C315.9,471.29 320.474,471.29 324.187,473.434C351.292,489.083 461.031,552.441 461.994,552.996C461.996,552.998 461.999,552.998 462.002,552.997C462.004,552.993 462.007,552.987 462.007,552.987C462.007,552.987 483.294,565.277 494,571.458C497.713,573.602 502.287,573.602 506,571.458C533.601,555.523 648.197,489.361 675.798,473.425C679.511,471.282 681.798,467.32 681.798,463.033C681.798,431.162 681.798,298.838 681.798,266.967C681.798,262.68 679.511,258.718 675.798,256.575C648.197,240.639 533.601,174.477 506,158.542C502.287,156.398 497.713,156.398 494,158.542C483.297,164.721 462.022,177.005 462.007,177.013C462.007,177.013 462.006,177.013 462.006,177.012C462.006,177.012 462.006,177.011 462.006,177.011C462.005,177.009 462.004,177.007 462.003,177.005C461.999,177.003 461.995,177.003 461.992,177.005C460.876,177.649 351.273,240.929 324.187,256.566C320.474,258.71 315.9,258.71 312.187,256.566C298.772,248.821 265.908,229.847 245.202,217.892Z" style="fill:rgb(17,0,81);stroke:rgb(17,0,81);stroke-width:8px;"/>
                    </g>
                    <g transform="matrix(1,0,0,1,1110,-1.7053e-13)">
                        <path d="M227.202,573.293C227.202,569.006 229.489,565.044 233.202,562.901C236.915,560.757 241.489,560.757 245.202,562.901C265.912,574.858 298.785,593.837 312.202,601.583C315.915,603.727 318.202,607.688 318.202,611.976L318.202,824.254C318.202,828.541 315.915,832.503 312.202,834.647C308.489,836.79 303.915,836.79 300.202,834.647C279.492,822.69 246.619,803.71 233.202,795.964C229.489,793.821 227.202,789.859 227.202,785.572L227.202,573.293Z" style="fill:rgb(17,0,81);stroke:rgb(17,0,81);stroke-width:8px;"/>
                    </g>
                    <g transform="matrix(1,0,0,1,1110,-1.7053e-13)">
                        <path d="M454.5,704.524C454.5,700.237 456.787,696.275 460.5,694.131C464.213,691.988 468.787,691.988 472.5,694.131C480.145,698.545 488.54,703.392 494.024,706.558C497.737,708.702 502.311,708.702 506.024,706.558C511.497,703.398 519.871,698.563 527.5,694.159C531.213,692.015 535.787,692.015 539.5,694.159C543.213,696.302 545.5,700.264 545.5,704.551C545.5,755.622 545.5,885.384 545.5,916.802C545.5,921.09 543.213,925.051 539.5,927.195C530.785,932.226 514.715,941.504 506,946.536C502.287,948.679 497.713,948.679 494,946.536C485.285,941.504 469.215,932.226 460.5,927.195C456.787,925.051 454.5,921.09 454.5,916.802C454.5,885.382 454.5,755.599 454.5,704.524Z" style="fill:rgb(17,0,81);stroke:rgb(17,0,81);stroke-width:8px;"/>
                    </g>
                    <g transform="matrix(1,0,0,1,1110,-1.7053e-13)">
                        <path d="M681.798,612.003C681.798,607.716 684.085,603.754 687.798,601.611C701.215,593.864 734.088,574.885 754.798,562.928C758.511,560.785 763.085,560.785 766.798,562.928C770.511,565.072 772.798,569.033 772.798,573.321C772.798,624.391 772.798,754.154 772.798,785.572C772.798,789.859 770.511,793.821 766.798,795.964C753.381,803.71 720.508,822.69 699.798,834.647C696.085,836.79 691.511,836.79 687.798,834.647C684.085,832.503 681.798,828.541 681.798,824.254C681.798,773.184 681.798,643.421 681.798,612.003Z" style="fill:rgb(17,0,81);stroke:rgb(17,0,81);stroke-width:8px;"/>
                    </g>
                    <g transform="matrix(1,0,0,1,1110,-1.7053e-13)">
                        <path d="M318.202,296.972C318.202,292.685 320.489,288.724 324.202,286.58C337.619,278.834 370.492,259.854 391.202,247.897C394.915,245.754 399.489,245.754 403.202,247.897C406.915,250.041 409.202,254.003 409.202,258.29C409.202,306.176 409.202,423.824 409.202,471.71C409.202,475.997 406.915,479.959 403.202,482.103C399.489,484.246 394.915,484.246 391.202,482.103C370.492,470.146 337.619,451.166 324.202,443.42C320.489,441.276 318.202,437.315 318.202,433.028C318.202,407.947 318.202,322.053 318.202,296.972Z" style="fill:rgb(81,68,234);stroke:rgb(81,68,234);stroke-width:8px;"/>
                    </g>
                </g>
            </g>
        </g>
    </g>
</svg>
