<?xml version="1.0" encoding="UTF-8" standalone="no"?>
<!DOCTYPE svg PUBLIC "-//W3C//DTD SVG 1.1//EN" "http://www.w3.org/Graphics/SVG/1.1/DTD/svg11.dtd">
<svg width="100%" height="100%" viewBox="0 0 1000 1000" version="1.1" xmlns="http://www.w3.org/2000/svg" xmlns:xlink="http://www.w3.org/1999/xlink" xml:space="preserve" xmlns:serif="http://www.serif.com/" style="fill-rule:evenodd;clip-rule:evenodd;stroke-linejoin:round;stroke-miterlimit:2;">
    <g transform="matrix(1,0,0,1,-1100,0)">
        <g transform="matrix(1,0,0,1,-10,0)">
            <rect id="Logo" x="1110" y="0" width="1000" height="1000" style="fill:none;"/>
            <g id="Logo1" serif:id="Logo">
                <g transform="matrix(0.543995,0.543995,-0.543995,0.543995,1576.88,1184.96)">
                    <path d="M-686.66,-1120C-668.981,-1120 -652.025,-1112.98 -639.524,-1100.48C-627.023,-1087.97 -620,-1071.02 -620,-1053.34C-620,-1031.88 -620,-1008.12 -620,-986.66C-620,-968.981 -627.023,-952.025 -639.524,-939.524C-652.025,-927.023 -668.981,-920 -686.66,-920C-711.592,-920 -740.381,-920 -767.246,-920C-791.846,-920 -815.438,-910.228 -832.833,-892.833C-850.228,-875.438 -860,-851.846 -860,-827.246C-860,-800.381 -860,-771.592 -860,-746.66C-860,-728.981 -867.023,-712.025 -879.524,-699.524C-892.025,-687.023 -908.981,-680 -926.66,-680L-993.34,-680C-1011.02,-680 -1027.97,-687.023 -1040.48,-699.524C-1052.98,-712.025 -1060,-728.981 -1060,-746.66C-1060,-829.603 -1060,-970.397 -1060,-1053.34C-1060,-1090.15 -1030.15,-1120 -993.34,-1120L-686.66,-1120ZM-140,-986.66C-140,-968.981 -147.023,-952.025 -159.524,-939.524C-172.025,-927.023 -188.981,-920 -206.66,-920C-231.592,-920 -260.381,-920 -287.246,-920C-311.846,-920 -335.438,-910.228 -352.833,-892.833C-370.228,-875.438 -380,-851.846 -380,-827.246C-380,-800.381 -380,-771.592 -380,-746.66C-380,-728.981 -387.023,-712.025 -399.524,-699.524C-412.025,-687.023 -428.981,-680 -446.66,-680C-468.116,-680 -491.884,-680 -513.34,-680C-531.019,-680 -547.975,-687.023 -560.476,-699.524C-572.977,-712.025 -580,-728.981 -580,-746.66C-580,-829.603 -580,-970.397 -580,-1053.34C-580,-1090.15 -550.155,-1120 -513.34,-1120L-206.66,-1120C-188.981,-1120 -172.025,-1112.98 -159.524,-1100.48C-147.023,-1087.97 -140,-1071.02 -140,-1053.34C-140,-1031.88 -140,-1008.12 -140,-986.66ZM-513.34,-200C-531.019,-200 -547.975,-207.023 -560.476,-219.524C-572.977,-232.025 -580,-248.981 -580,-266.66C-580,-288.116 -580,-311.884 -580,-333.34C-580,-351.019 -572.977,-367.975 -560.476,-380.476C-547.975,-392.977 -531.019,-400 -513.34,-400C-488.408,-400 -459.619,-400 -432.754,-400C-408.154,-400 -384.562,-409.772 -367.167,-427.167C-349.772,-444.562 -340,-468.154 -340,-492.754C-340,-519.619 -340,-548.408 -340,-573.34C-340,-591.019 -332.977,-607.975 -320.476,-620.476C-307.975,-632.977 -291.019,-640 -273.34,-640C-251.884,-640 -228.116,-640 -206.66,-640C-188.981,-640 -172.025,-632.977 -159.524,-620.476C-147.023,-607.975 -140,-591.019 -140,-573.34C-140,-490.397 -140,-349.603 -140,-266.66C-140,-229.845 -169.845,-200 -206.66,-200C-289.603,-200 -430.397,-200 -513.34,-200ZM-753.34,-200C-771.019,-200 -787.975,-207.023 -800.476,-219.524C-812.977,-232.025 -820,-248.981 -820,-266.66C-820,-291.592 -820,-320.381 -820,-347.246C-820,-371.846 -829.772,-395.438 -847.167,-412.833C-864.562,-430.228 -888.154,-440 -912.754,-440C-939.619,-440 -968.408,-440 -993.34,-440C-1011.02,-440 -1027.97,-447.023 -1040.48,-459.524C-1052.98,-472.025 -1060,-488.981 -1060,-506.66L-1060,-573.34C-1060,-591.019 -1052.98,-607.975 -1040.48,-620.476C-1027.97,-632.977 -1011.02,-640 -993.34,-640C-910.397,-640 -769.603,-640 -686.66,-640C-649.845,-640 -620,-610.155 -620,-573.34C-620,-490.397 -620,-349.603 -620,-266.66C-620,-248.981 -627.023,-232.025 -639.524,-219.524C-652.025,-207.023 -668.981,-200 -686.66,-200C-708.116,-200 -731.884,-200 -753.34,-200ZM-140,-746.66C-140,-728.981 -147.023,-712.025 -159.524,-699.524C-172.025,-687.023 -188.981,-680 -206.66,-680C-228.116,-680 -251.884,-680 -273.34,-680C-291.019,-680 -307.975,-687.023 -320.476,-699.524C-332.977,-712.025 -340,-728.981 -340,-746.66C-340,-768.116 -340,-791.884 -340,-813.34C-340,-831.019 -332.977,-847.975 -320.476,-860.476C-307.975,-872.977 -291.019,-880 -273.34,-880C-251.884,-880 -228.116,-880 -206.66,-880C-188.981,-880 -172.025,-872.977 -159.524,-860.476C-147.023,-847.975 -140,-831.019 -140,-813.34C-140,-791.884 -140,-768.116 -140,-746.66ZM-1060,-333.34C-1060,-351.019 -1052.98,-367.975 -1040.48,-380.476C-1027.97,-392.977 -1011.02,-400 -993.34,-400C-971.884,-400 -948.116,-400 -926.66,-400C-908.981,-400 -892.025,-392.977 -879.524,-380.476C-867.023,-367.975 -860,-351.019 -860,-333.34C-860,-311.884 -860,-288.116 -860,-266.66C-860,-248.981 -867.023,-232.025 -879.524,-219.524C-892.025,-207.023 -908.981,-200 -926.66,-200C-948.116,-200 -971.884,-200 -993.34,-200C-1011.02,-200 -1027.97,-207.023 -1040.48,-219.524C-1052.98,-232.025 -1060,-248.981 -1060,-266.66C-1060,-288.116 -1060,-311.884 -1060,-333.34Z"/>
                </g>
            </g>
        </g>
    </g>
</svg>
