<?xml version="1.0" encoding="UTF-8" standalone="no"?>
<!DOCTYPE svg PUBLIC "-//W3C//DTD SVG 1.1//EN" "http://www.w3.org/Graphics/SVG/1.1/DTD/svg11.dtd">
<svg width="100%" height="100%" viewBox="0 0 1000 1000" version="1.1" xmlns="http://www.w3.org/2000/svg" xmlns:xlink="http://www.w3.org/1999/xlink" xml:space="preserve" xmlns:serif="http://www.serif.com/" style="fill-rule:evenodd;clip-rule:evenodd;stroke-linecap:round;stroke-linejoin:round;stroke-miterlimit:2;">
    <g transform="matrix(1,0,0,1,-3317,0)">
        <g transform="matrix(1,0,0,1,2207,4.54747e-13)">
            <rect id="Logo.White" x="1110" y="0" width="1000" height="1000" style="fill:none;"/>
            <g id="Logo.White1" serif:id="Logo.White">
                <g transform="matrix(1,0,0,1,-2,-4.54747e-13)">
                    <g transform="matrix(1,0,0,1,1110,3.41061e-13)">
                        <path d="M820,234.752L889.711,275L889.711,725L820,764.825" style="fill:none;stroke:rgb(225,212,248);stroke-width:24px;"/>
                    </g>
                    <g transform="matrix(-1,0,0,-1,2110,999.788)">
                        <path d="M820,234.752L889.711,275L889.711,725L820,764.825" style="fill:none;stroke:rgb(225,212,248);stroke-width:24px;"/>
                    </g>
                    <g transform="matrix(1,0,0,1,1110,-1.7053e-13)">
                        <path d="M245.202,217.892C241.489,215.749 239.202,211.787 239.202,207.5C239.202,203.213 241.489,199.251 245.202,197.108C299.642,165.677 460.851,72.602 494,53.464C497.713,51.321 502.287,51.321 506,53.464C542.154,74.338 730.644,183.162 766.798,204.036C770.511,206.179 772.798,210.141 772.798,214.428L772.798,515.572C772.798,519.859 770.511,523.821 766.798,525.964C730.645,546.837 542.165,655.656 506.012,676.529C502.299,678.673 497.725,678.673 494.012,676.529C460.863,657.391 299.654,564.317 245.214,532.885C241.501,530.742 239.214,526.78 239.214,522.493C239.214,518.206 241.501,514.244 245.214,512.101C265.917,500.148 298.774,481.178 312.187,473.434C315.9,471.29 320.474,471.29 324.187,473.434C351.292,489.083 461.031,552.441 461.994,552.996C461.996,552.998 461.999,552.998 462.002,552.997C462.004,552.993 462.007,552.987 462.007,552.987C462.007,552.987 483.294,565.277 494,571.458C497.713,573.602 502.287,573.602 506,571.458C533.601,555.523 648.197,489.361 675.798,473.425C679.511,471.282 681.798,467.32 681.798,463.033C681.798,431.162 681.798,298.838 681.798,266.967C681.798,262.68 679.511,258.718 675.798,256.575C648.197,240.639 533.601,174.477 506,158.542C502.287,156.398 497.713,156.398 494,158.542C483.297,164.721 462.022,177.005 462.007,177.013C462.007,177.013 462.006,177.013 462.006,177.012C462.006,177.012 462.006,177.011 462.006,177.011C462.005,177.009 462.004,177.007 462.003,177.005C461.999,177.003 461.995,177.003 461.992,177.005C460.876,177.649 351.273,240.929 324.187,256.566C320.474,258.71 315.9,258.71 312.187,256.566C298.772,248.821 265.908,229.847 245.202,217.892Z" style="fill:rgb(224,212,248);stroke:rgb(225,212,248);stroke-width:8px;"/>
                    </g>
                    <g transform="matrix(1,0,0,1,1110,-1.7053e-13)">
                        <path d="M227.202,573.293C227.202,569.006 229.489,565.044 233.202,562.901C236.915,560.757 241.489,560.757 245.202,562.901C265.912,574.858 298.785,593.837 312.202,601.583C315.915,603.727 318.202,607.688 318.202,611.976L318.202,824.254C318.202,828.541 315.915,832.503 312.202,834.647C308.489,836.79 303.915,836.79 300.202,834.647C279.492,822.69 246.619,803.71 233.202,795.964C229.489,793.821 227.202,789.859 227.202,785.572L227.202,573.293Z" style="fill:rgb(224,212,248);stroke:rgb(225,212,248);stroke-width:8px;"/>
                    </g>
                    <g transform="matrix(1,0,0,1,1110,-1.7053e-13)">
                        <path d="M454.5,704.524C454.5,700.237 456.787,696.275 460.5,694.131C464.213,691.988 468.787,691.988 472.5,694.131C480.145,698.545 488.54,703.392 494.024,706.558C497.737,708.702 502.311,708.702 506.024,706.558C511.497,703.398 519.871,698.563 527.5,694.159C531.213,692.015 535.787,692.015 539.5,694.159C543.213,696.302 545.5,700.264 545.5,704.551C545.5,755.622 545.5,885.384 545.5,916.802C545.5,921.09 543.213,925.051 539.5,927.195C530.785,932.226 514.715,941.504 506,946.536C502.287,948.679 497.713,948.679 494,946.536C485.285,941.504 469.215,932.226 460.5,927.195C456.787,925.051 454.5,921.09 454.5,916.802C454.5,885.382 454.5,755.599 454.5,704.524Z" style="fill:rgb(224,212,248);stroke:rgb(225,212,248);stroke-width:8px;"/>
                    </g>
                    <g transform="matrix(1,0,0,1,1110,-1.7053e-13)">
                        <path d="M681.798,612.003C681.798,607.716 684.085,603.754 687.798,601.611C701.215,593.864 734.088,574.885 754.798,562.928C758.511,560.785 763.085,560.785 766.798,562.928C770.511,565.072 772.798,569.033 772.798,573.321C772.798,624.391 772.798,754.154 772.798,785.572C772.798,789.859 770.511,793.821 766.798,795.964C753.381,803.71 720.508,822.69 699.798,834.647C696.085,836.79 691.511,836.79 687.798,834.647C684.085,832.503 681.798,828.541 681.798,824.254C681.798,773.184 681.798,643.421 681.798,612.003Z" style="fill:rgb(224,212,248);stroke:rgb(225,212,248);stroke-width:8px;"/>
                    </g>
                    <g transform="matrix(1,0,0,1,1110,-1.7053e-13)">
                        <path d="M318.202,296.972C318.202,292.685 320.489,288.724 324.202,286.58C337.619,278.834 370.492,259.854 391.202,247.897C394.915,245.754 399.489,245.754 403.202,247.897C406.915,250.041 409.202,254.003 409.202,258.29C409.202,306.176 409.202,423.824 409.202,471.71C409.202,475.997 406.915,479.959 403.202,482.103C399.489,484.246 394.915,484.246 391.202,482.103C370.492,470.146 337.619,451.166 324.202,443.42C320.489,441.276 318.202,437.315 318.202,433.028C318.202,407.947 318.202,322.053 318.202,296.972Z" style="fill:rgb(81,68,234);stroke:rgb(81,68,234);stroke-width:8px;"/>
                    </g>
                </g>
            </g>
        </g>
    </g>
</svg>
