<?xml version="1.0" encoding="UTF-8" standalone="no"?>
<!DOCTYPE svg PUBLIC "-//W3C//DTD SVG 1.1//EN" "http://www.w3.org/Graphics/SVG/1.1/DTD/svg11.dtd">
<svg width="100%" height="100%" viewBox="0 0 1000 1000" version="1.1" xmlns="http://www.w3.org/2000/svg" xmlns:xlink="http://www.w3.org/1999/xlink" xml:space="preserve" xmlns:serif="http://www.serif.com/" style="fill-rule:evenodd;clip-rule:evenodd;stroke-linejoin:round;stroke-miterlimit:2;">
    <g transform="matrix(1,0,0,1,-1071,0)">
        <g transform="matrix(1,0,0,1,1071,0)">
            <rect id="Logo-Backgournd" x="0" y="0" width="1000" height="1000" style="fill:rgb(255,96,28);"/>
            <g id="Logo-Backgournd1" serif:id="Logo-Backgournd">
                <g transform="matrix(1.4,0,0,1.4,-298,-60)">
                    <path d="M400,468.006C423.651,494.968 458.352,512 497,512C508.008,512 518.695,510.618 528.898,508.019C552.525,534.394 586.838,551 625,551C675.155,551 718.664,522.315 740,480.469L740,600L400,600L400,468.006ZM740,265.639L740,363.531C727.87,339.741 708.574,320.205 684.964,307.775C706.94,298.956 725.935,284.261 740,265.639ZM617.187,200L666.832,200C649.561,207.655 634.279,218.991 621.985,233.011C621.812,221.588 620.151,210.522 617.187,200ZM532.68,200L592.016,200C595.891,210.949 598,222.73 598,235C598,251.354 594.253,266.84 587.572,280.645C557.858,264.746 536.665,234.969 532.68,200ZM400,283.759L400,200L508.552,200C510.511,221.2 517.61,240.921 528.588,257.902C518.479,255.354 507.896,254 497,254C461.061,254 428.535,268.729 405.133,292.474C403.288,289.66 401.574,286.752 400,283.759ZM400,423.242L400,342.758C401.782,338.472 403.84,334.33 406.151,330.352C429.08,351.251 459.563,364 493,364C498.885,364 504.678,363.605 510.355,362.84C501.182,380.565 496,400.682 496,422C496,445.582 502.341,467.694 513.41,486.723C508.063,487.563 502.582,488 497,488C453.302,488 415.802,461.248 400,423.242ZM553.582,498.943C590.042,481.1 616.869,446.561 624.074,405.314C647.656,430.936 681.467,447 719,447C721.707,447 724.395,446.916 727.061,446.752C715.922,492.775 674.426,527 625,527C597.428,527 572.325,516.35 553.582,498.943ZM568.418,306.057C554.839,312.702 542.597,321.663 532.206,332.424C520.09,337.31 506.857,340 493,340C464.94,340 439.436,328.969 420.591,311.011C439.743,290.692 466.901,278 497,278C524.572,278 549.675,288.65 568.418,306.057ZM624.611,364.02C622.854,352.127 619.472,340.761 614.697,330.154C614.237,326.166 614,322.111 614,318C614,317.857 614,317.713 614.001,317.57C617.616,317.193 621.286,317 625,317C682.951,317 730,364.049 730,422C730,422.143 730,422.287 729.999,422.43C726.384,422.807 722.714,423 719,423C677.551,423 641.68,398.931 624.611,364.02ZM617.462,291.182C629.327,246.204 670.316,213 719,213C725.676,213 732.207,213.624 738.538,214.818C726.673,259.796 685.684,293 637,293C630.324,293 623.793,292.376 617.462,291.182ZM546.343,352.472C560.81,345.886 573.849,336.705 584.867,325.526C587.27,329.191 589.451,333.016 591.389,336.98C593.146,348.873 596.528,360.239 601.303,370.846C601.763,374.834 602,378.889 602,383C602,426.627 575.336,464.075 537.429,479.922C526.416,463.315 520,443.401 520,422C520,395.345 529.954,370.997 546.343,352.472Z" style="fill:white;"/>
                </g>
            </g>
        </g>
    </g>
</svg>
